<?xml version="1.0" standalone="no"?>
<!DOCTYPE svg PUBLIC "-//W3C//DTD SVG 20010904//EN"
 "http://www.w3.org/TR/2001/REC-SVG-20010904/DTD/svg10.dtd">
<svg version="1.0" xmlns="http://www.w3.org/2000/svg"
 width="159.000000pt" height="159.000000pt" viewBox="0 0 159.000000 159.000000"
 preserveAspectRatio="xMidYMid meet">
<metadata>
Created by potrace 1.14, written by Peter Selinger 2001-2017
</metadata>
<g transform="translate(0.000000,159.000000) scale(0.100000,-0.100000)"
fill="#000000" stroke="none">
<path d="M757 1440 c-36 -29 -41 -72 -19 -157 26 -97 13 -164 -62 -312 l-25
-48 -61 -6 c-128 -11 -261 -111 -327 -244 -26 -53 -28 -67 -28 -168 0 -103 2
-113 29 -163 38 -67 102 -127 174 -160 46 -21 76 -27 154 -30 121 -5 210 19
289 78 133 99 228 293 229 465 l0 51 73 -1 c59 0 82 5 122 26 107 54 149 167
89 238 -35 42 -92 44 -123 4 -26 -31 -20 -56 20 -98 16 -17 29 -38 29 -47 0
-19 -36 -48 -60 -48 -8 0 -62 24 -119 53 -92 46 -111 52 -162 51 -166 -3 -287
-173 -191 -269 47 -47 132 -25 132 34 0 13 -13 39 -30 58 -36 41 -38 67 -5 89
30 20 65 13 128 -26 43 -27 47 -34 47 -68 0 -57 -27 -168 -53 -225 -53 -115
-161 -195 -291 -217 -37 -7 -89 -10 -114 -6 -49 7 -152 50 -152 63 0 5 87 193
194 418 106 226 204 440 216 477 29 87 24 152 -15 185 -32 28 -55 29 -88 3z
m-179 -638 c10 -7 -9 -56 -78 -203 -51 -107 -95 -197 -99 -202 -11 -11 -68 73
-80 121 -13 47 -2 131 23 179 21 41 69 83 112 98 44 16 102 19 122 7z"/>
</g>
</svg>
